# xmcd CD database file
#
# Track frame offsets:
#	150
#	16520
#	32167
#
# Disc length: 803 seconds
#
# Revision: 2
# Processed by: cddbd v1.5.1PL0 Copyright (c) Steve Scherf et al.
# Submitted via: CDex 1.60beta1
#
DISCID=14032103
DTITLE=LIV - THE SHOW
DYEAR=2004
DGENRE=Rock
TTITLE0=THE SHOW
TTITLE1=Disfunction dot 1
TTITLE2=T(unplugged version)
EXTD=YEAR: 2004
EXTT0=
EXTT1=
EXTT2=
PLAYORDER=
